<?xml version="1.0" encoding="utf-8"?>
<!-- Generator: Adobe Illustrator 15.1.0, SVG Export Plug-In . SVG Version: 6.00 Build 0)  -->
<!DOCTYPE svg PUBLIC "-//W3C//DTD SVG 1.1//EN" "http://www.w3.org/Graphics/SVG/1.1/DTD/svg11.dtd">
<svg version="1.1" id="Layer_1" xmlns="http://www.w3.org/2000/svg" xmlns:xlink="http://www.w3.org/1999/xlink" x="0px" y="0px"
	 width="96px" height="96px" viewBox="0 0 96 96" enable-background="new 0 0 96 96" xml:space="preserve">
<linearGradient id="SVGID_1_" gradientUnits="userSpaceOnUse" x1="264" y1="-261.9995" x2="264" y2="-182" gradientTransform="matrix(1 0 0 -1 -216 -174)">
	<stop  offset="0" style="stop-color:#353887"/>
	<stop  offset="0.0759" style="stop-color:#2E3175"/>
	<stop  offset="0.2749" style="stop-color:#1E1F4B"/>
	<stop  offset="0.4691" style="stop-color:#11122B"/>
	<stop  offset="0.6545" style="stop-color:#070813"/>
	<stop  offset="0.8274" style="stop-color:#020205"/>
	<stop  offset="0.9755" style="stop-color:#000000"/>
	<stop  offset="1" style="stop-color:#272526"/>
</linearGradient>
<path fill="url(#SVGID_1_)" d="M87.999,48c0,29.639-10.367,40-39.999,40C18.36,88,8,77.639,8,48C8,18.368,18.36,8,48,8
	C77.632,8,87.999,18.368,87.999,48z"/>
<path fill="#9DBE4F" d="M58.707,36.376c4.258-2.32,9.38-1.14,11.438,2.639C64.023,27.781,48.796,24.27,36.136,31.17
	c-12.663,6.901-17.964,21.602-11.841,32.834c-2.061-3.779-0.277-8.723,3.981-11.043c3.66-1.994,7.949-1.396,10.393,1.205
	c-0.547-2.189-0.015-4.566,1.373-6.522l9.226,16.737c0.612,1.113,1.344,2.082,2.201,2.916c0.854,0.831,1.828,1.436,2.92,1.811
	c1.092,0.373,2.285,0.496,3.584,0.358c1.297-0.134,2.694-0.614,4.19-1.438c1.438-0.795,2.558-1.699,3.351-2.715
	c0.795-1.02,1.318-2.094,1.577-3.229c0.257-1.14,0.272-2.289,0.05-3.449c-0.226-1.161-0.637-2.284-1.23-3.364l-3.213-5.832
	l-4.999,2.754l2.938,5.33c0.705,1.278,0.991,2.405,0.861,3.379c-0.125,0.978-0.729,1.762-1.805,2.354
	c-1.103,0.606-2.092,0.688-2.963,0.248c-0.875-0.442-1.668-1.315-2.39-2.62l-4.635-8.414l-2.112-3.83l-2.536-4.604
	c3.82-1.2,7.889,0.12,9.667,3.386C52.667,43.642,54.45,38.696,58.707,36.376z"/>
</svg>
